<?xml version="1.0" encoding="UTF-8"?>
<!DOCTYPE svg PUBLIC "-//W3C//DTD SVG 1.1//EN" "http://www.w3.org/Graphics/SVG/1.1/DTD/svg11.dtd">
<svg xmlns="http://www.w3.org/2000/svg" version="1.1" width="150px" height="150px" style="shape-rendering:geometricPrecision; text-rendering:geometricPrecision; image-rendering:optimizeQuality; fill-rule:evenodd; clip-rule:evenodd" xmlns:xlink="http://www.w3.org/1999/xlink">
<g><path style="opacity:0.844" fill="#000000" d="M 58.5,17.5 C 87.1492,18.6481 103.149,33.4815 106.5,62C 105.979,72.8995 102.313,82.5662 95.5,91C 107.278,101.776 118.778,112.943 130,124.5C 129.805,126.745 128.638,128.578 126.5,130C 125.833,130.667 125.167,130.667 124.5,130C 113.5,119 102.5,108 91.5,97C 90.5,96.3333 89.5,96.3333 88.5,97C 70.5211,109.662 52.5211,109.662 34.5,97C 15.1613,78.1436 12.6613,57.3102 27,34.5C 35.2953,24.5815 45.7953,18.9148 58.5,17.5 Z M 61.5,24.5 C 83.9246,27.0912 96.5913,39.5912 99.5,62C 96.6667,84.1667 84.1667,96.6667 62,99.5C 39.2797,96.9463 26.7797,84.2796 24.5,61.5C 27.2662,39.4002 39.5996,27.0669 61.5,24.5 Z"/></g>
</svg>
