<?xml version="1.0" encoding="UTF-8"?>
<!DOCTYPE svg PUBLIC "-//W3C//DTD SVG 1.1//EN" "http://www.w3.org/Graphics/SVG/1.1/DTD/svg11.dtd">
<svg xmlns="http://www.w3.org/2000/svg" version="1.1" width="150px" height="150px" style="shape-rendering:geometricPrecision; text-rendering:geometricPrecision; image-rendering:optimizeQuality; fill-rule:evenodd; clip-rule:evenodd" xmlns:xlink="http://www.w3.org/1999/xlink">
<g><path style="opacity:0.968" fill="#000000" d="M 72.5,17.5 C 83.1664,17.3409 89.9998,22.3409 93,32.5C 93.6667,48.1667 93.6667,63.8333 93,79.5C 88.0798,91.8761 79.2465,96.0428 66.5,92C 61.0109,89.5316 57.5109,85.3649 56,79.5C 55.3333,63.5 55.3333,47.5 56,31.5C 58.9805,23.6735 64.4805,19.0069 72.5,17.5 Z"/></g>
<g><path style="opacity:0.859" fill="#000000" d="M 33.5,74.5 C 35.8333,74.5 38.1667,74.5 40.5,74.5C 42.7785,94.6117 53.9451,105.945 74,108.5C 94.5779,106.422 106.078,95.0891 108.5,74.5C 110.833,74.5 113.167,74.5 115.5,74.5C 115.192,89.9532 108.525,101.787 95.5,110C 91.1082,112.409 86.4416,113.909 81.5,114.5C 81.5,120.167 81.5,125.833 81.5,131.5C 76.8333,131.5 72.1667,131.5 67.5,131.5C 67.5,125.833 67.5,120.167 67.5,114.5C 52.7281,111.563 42.2281,103.229 36,89.5C 34.3274,84.6372 33.494,79.6372 33.5,74.5 Z"/></g>
</svg>
